<svg xmlns="http://www.w3.org/2000/svg" xmlns:xlink="http://www.w3.org/1999/xlink" width="46.412" height="46.412" viewBox="0 0 46.412 46.412">
  <defs>
    <clipPath id="clip-path">
      <rect id="Rectangle_336" data-name="Rectangle 336" width="46.412" height="46.412" transform="translate(0 0)" fill="none"/>
    </clipPath>
  </defs>
  <g id="affiliate_program_icon" transform="translate(0 0)">
    <g id="Group_549" data-name="Group 549" clip-path="url(#clip-path)">
      <circle id="Ellipse_112" data-name="Ellipse 112" cx="5.25" cy="5.25" r="5.25" transform="translate(17.956 17.956)" fill="none" stroke="#00baff" stroke-linecap="round" stroke-miterlimit="10" stroke-width="3"/>
      <circle id="Ellipse_113" data-name="Ellipse 113" cx="3.75" cy="3.75" r="3.75" transform="translate(19.456 1.456)" fill="none" stroke="#00baff" stroke-linecap="round" stroke-miterlimit="10" stroke-width="2.912"/>
      <line id="Line_340" data-name="Line 340" y2="9" transform="translate(23.206 8.956)" fill="none" stroke="#00baff" stroke-linecap="round" stroke-miterlimit="10" stroke-width="2.912"/>
      <path id="Path_2393" data-name="Path 2393" d="M13.13,7.826a3.75,3.75,0,1,1-5.3,0A3.75,3.75,0,0,1,13.13,7.826Z" fill="none" stroke="#00baff" stroke-linecap="round" stroke-miterlimit="10" stroke-width="2.912"/>
      <line id="Line_341" data-name="Line 341" x2="6.364" y2="6.364" transform="translate(13.13 13.13)" fill="none" stroke="#00baff" stroke-linecap="round" stroke-miterlimit="10" stroke-width="2.912"/>
      <circle id="Ellipse_114" data-name="Ellipse 114" cx="3.75" cy="3.75" r="3.75" transform="translate(1.456 19.456)" fill="none" stroke="#00baff" stroke-linecap="round" stroke-miterlimit="10" stroke-width="2.912"/>
      <line id="Line_342" data-name="Line 342" x2="9" transform="translate(8.956 23.206)" fill="none" stroke="#00baff" stroke-linecap="round" stroke-miterlimit="10" stroke-width="2.912"/>
      <path id="Path_2394" data-name="Path 2394" d="M7.826,33.282a3.75,3.75,0,1,1,0,5.3A3.75,3.75,0,0,1,7.826,33.282Z" fill="none" stroke="#00baff" stroke-linecap="round" stroke-miterlimit="10" stroke-width="2.912"/>
      <line id="Line_343" data-name="Line 343" y1="6.364" x2="6.364" transform="translate(13.13 26.918)" fill="none" stroke="#00baff" stroke-linecap="round" stroke-miterlimit="10" stroke-width="2.912"/>
      <circle id="Ellipse_115" data-name="Ellipse 115" cx="3.75" cy="3.75" r="3.75" transform="translate(19.456 37.456)" fill="none" stroke="#00baff" stroke-linecap="round" stroke-miterlimit="10" stroke-width="2.912"/>
      <line id="Line_344" data-name="Line 344" y1="9" transform="translate(23.206 28.456)" fill="none" stroke="#00baff" stroke-linecap="round" stroke-miterlimit="10" stroke-width="2.912"/>
      <path id="Path_2395" data-name="Path 2395" d="M33.282,38.585a3.75,3.75,0,1,1,5.3,0A3.75,3.75,0,0,1,33.282,38.585Z" fill="none" stroke="#00baff" stroke-linecap="round" stroke-miterlimit="10" stroke-width="2.912"/>
      <line id="Line_345" data-name="Line 345" x1="6.364" y1="6.364" transform="translate(26.918 26.918)" fill="none" stroke="#00baff" stroke-linecap="round" stroke-miterlimit="10" stroke-width="2.912"/>
      <circle id="Ellipse_116" data-name="Ellipse 116" cx="3.75" cy="3.75" r="3.75" transform="translate(37.456 19.456)" fill="none" stroke="#00baff" stroke-linecap="round" stroke-miterlimit="10" stroke-width="2.912"/>
      <line id="Line_346" data-name="Line 346" x1="9" transform="translate(28.456 23.206)" fill="none" stroke="#00baff" stroke-linecap="round" stroke-miterlimit="10" stroke-width="2.912"/>
      <path id="Path_2396" data-name="Path 2396" d="M38.585,13.13a3.75,3.75,0,1,1,0-5.3A3.75,3.75,0,0,1,38.585,13.13Z" fill="none" stroke="#00baff" stroke-linecap="round" stroke-miterlimit="10" stroke-width="2.912"/>
      <line id="Line_347" data-name="Line 347" x1="6.364" y2="6.364" transform="translate(26.918 13.13)" fill="none" stroke="#00baff" stroke-linecap="round" stroke-miterlimit="10" stroke-width="2.912"/>
    </g>
  </g>
</svg>
