<svg xmlns="http://www.w3.org/2000/svg" xmlns:xlink="http://www.w3.org/1999/xlink" width="38.519" height="40.5" viewBox="0 0 38.519 40.5"><defs><clipPath id="a"><rect width="38.519" height="40.5" fill="none"/></clipPath></defs><g clip-path="url(#a)"><path d="M1.5,13.079v14.7a7.612,7.612,0,0,0,5.059,7.17l10.148,3.612a7.617,7.617,0,0,0,5.1,0L31.96,34.947a7.612,7.612,0,0,0,5.059-7.17V12.683a7.612,7.612,0,0,0-5.059-7.17L21.922,1.94a7.612,7.612,0,0,0-5.3.072L6.365,5.981A7.61,7.61,0,0,0,1.5,13.079Z" fill="none" stroke="#00baff" stroke-linecap="round" stroke-miterlimit="10" stroke-width="3"/><line x1="6.432" y2="17.588" transform="translate(16.043 11.445)" fill="none" stroke="#00baff" stroke-linecap="round" stroke-miterlimit="10" stroke-width="3"/><path d="M12.813,24.4,8.645,20.23l4.168-4.168" fill="none" stroke="#00baff" stroke-linecap="round" stroke-miterlimit="10" stroke-width="3"/><path d="M25.705,16.062l4.168,4.168L25.705,24.4" fill="none" stroke="#00baff" stroke-linecap="round" stroke-miterlimit="10" stroke-width="3"/></g></svg>