<svg xmlns="http://www.w3.org/2000/svg" width="31" height="31" viewBox="0 0 31 31"><path d="M30,17.439V13.561c-2.019-.727-3.231-.889-3.877-2.423h0c-.646-1.535.081-2.585,1.05-4.524L24.345,3.868c-1.858.889-2.908,1.7-4.524,1.05h0C18.287,4.272,18.045,2.979,17.4,1.04H13.521c-.727,2.019-.889,3.231-2.423,3.877h0c-1.535.646-2.585-.081-4.524-1.05L3.827,6.614c.889,1.939,1.7,2.989,1.05,4.524S2.939,12.915,1,13.561v3.877c1.939.727,3.231.889,3.877,2.423s-.162,2.585-1.05,4.524l2.747,2.747c1.858-.889,2.989-1.7,4.524-1.05h0c1.535.646,1.777,1.939,2.423,3.877H17.4c.727-2.019.889-3.231,2.423-3.877h0c1.535-.646,2.585.162,4.443,1.05l2.747-2.747c-.889-1.858-1.7-2.908-1.05-4.524C26.769,18.327,28.061,18.166,30,17.439ZM14.813,11.7l4.12,2.343a1.662,1.662,0,0,1,0,2.827l-4.12,2.343a1.612,1.612,0,0,1-2.423-1.373V13.077A1.64,1.64,0,0,1,14.813,11.7Z" fill="none" stroke="#00afec" stroke-linejoin="round" stroke-width="2"/></svg>