<svg xmlns="http://www.w3.org/2000/svg" xmlns:xlink="http://www.w3.org/1999/xlink" width="39.407" height="45" viewBox="0 0 39.407 45"><defs><clipPath id="a"><rect width="39.407" height="45" fill="none"/></clipPath></defs><g clip-path="url(#a)"><path d="M32.306,21.1v9.36c0,6.96-5.642,13.036-12.6,13.036S7.1,37.424,7.1,30.464V21.1a12.6,12.6,0,1,1,25.2,0Zm5.6,5.6V19.424a18.206,18.206,0,0,0-36.408,0c0,8.71,5.885,12.567,16.8,12.864M32.309,26.7l5.6.008m-18.2,4.2a1.4,1.4,0,1,0,1.4,1.4A1.4,1.4,0,0,0,19.7,30.906Z" fill="none" stroke="#00baff" stroke-linecap="round" stroke-miterlimit="10" stroke-width="3"/></g></svg>