<svg xmlns="http://www.w3.org/2000/svg" width="48" height="48"><path data-name="Path 345" d="M24 0a24 24 0 1 0 24 24A24.027 24.027 0 0 0 24 0Zm.024 9.231a3.51 3.51 0 1 1-3.52 3.5 3.51 3.51 0 0 1 3.52-3.5Zm11.587 9.5-7.735 1.755c0 2.11-.352 5.977.351 9.493l2.11 6.329c.022.048.041.1.059.147a1.816 1.816 0 0 1-1.114 2.314h-.7a2.339 2.339 0 0 1-1.758-1.406l-1.763-5.977a1.238 1.238 0 0 1-.352-.7 3.509 3.509 0 0 0-.351-1.054h-.352a1.54 1.54 0 0 0-.345 1.054l-.352.7-2.11 5.977a1.793 1.793 0 0 1-1.758 1.406h-.7a2.144 2.144 0 0 1-1.054-2.461l2.109-6.329a29.863 29.863 0 0 0 .352-9.493l-7.735-1.406a1.93 1.93 0 0 1-1.407-2.11 2.374 2.374 0 0 1 2.11-1.406 55.616 55.616 0 0 0 7.383 1.406c1.055 0 2.813.352 3.516.352 1.055 0 2.813-.352 3.516-.352 1.758-.351 7.384-1.406 7.384-1.406a1.929 1.929 0 0 1 2.109 1.406c-.007 1.055-.363 1.758-1.413 1.758Z" fill="#4a5b68"/></svg>