<svg xmlns="http://www.w3.org/2000/svg" width="29.675" height="39" viewBox="0 0 29.675 39"><g transform="translate(866.739 -314.763)"><path d="M-839.738,332.168l-.519-6.228a1.709,1.709,0,0,0-1.7-1.567h-19.883a1.709,1.709,0,0,0-1.7,1.567l-1.679,22.921a3.141,3.141,0,0,0,3.131,3.4h20.386a3.141,3.141,0,0,0,3.13-3.4l-.122-1.466Z" fill="none" stroke="#00baff" stroke-linecap="round" stroke-miterlimit="10" stroke-width="3"/><path d="M-846.425,327.142V321.5a5.233,5.233,0,0,0-5.233-5.234h0a5.234,5.234,0,0,0-5.234,5.234v5.645" fill="none" stroke="#00baff" stroke-linecap="round" stroke-miterlimit="10" stroke-width="3"/></g></svg>