<svg xmlns="http://www.w3.org/2000/svg" xmlns:xlink="http://www.w3.org/1999/xlink" width="39" height="39" viewBox="0 0 39 39"><defs><clipPath id="a"><rect width="39" height="39" fill="none"/></clipPath></defs><g clip-path="url(#a)"><circle cx="18" cy="18" r="18" transform="translate(1.5 1.5)" fill="none" stroke="#00baff" stroke-linecap="round" stroke-miterlimit="10" stroke-width="3"/><path d="M19.126,23.276a5.41,5.41,0,0,1,.3-2.2,4.9,4.9,0,0,1,1.428-1.794c1.169-.967,2.8-2.022,2.351-4.75a3.24,3.24,0,0,0-.99-1.842,3.8,3.8,0,0,0-2.612-.975,4.149,4.149,0,0,0-2.744.933,3.044,3.044,0,0,0-1.04,2.382" fill="none" stroke="#00baff" stroke-linecap="round" stroke-miterlimit="10" stroke-width="3"/><path d="M20.691,28.018a1.5,1.5,0,1,1-1.5-1.5,1.5,1.5,0,0,1,1.5,1.5" fill="#00baff"/></g></svg>