<svg xmlns="http://www.w3.org/2000/svg" width="39" height="39.604" viewBox="0 0 39 39.604"><g transform="translate(1074.095 -632.775)"><path d="M-1067.195,652.275h-1.8a3.6,3.6,0,0,1-3.6-3.6v-10.8a3.6,3.6,0,0,1,3.6-3.6h18a3.6,3.6,0,0,1,3.6,3.6v10.8a3.6,3.6,0,0,1-3.6,3.6h-8.216" fill="none" stroke="#00baff" stroke-linecap="round" stroke-miterlimit="10" stroke-width="3"/><line y2="6.178" transform="translate(-1067.195 652.275)" fill="none" stroke="#00baff" stroke-linecap="round" stroke-miterlimit="10" stroke-width="3"/><line y1="6.184" x2="7.984" transform="translate(-1067.195 652.268)" fill="none" stroke="#00baff" stroke-linecap="round" stroke-miterlimit="10" stroke-width="3"/><path d="M-1061.8,654.27V660.5a3.6,3.6,0,0,0,3.6,3.6h8.215" fill="none" stroke="#00baff" stroke-linecap="round" stroke-miterlimit="10" stroke-width="3"/><path d="M-1041.995,664.1h1.8a3.6,3.6,0,0,0,3.6-3.6V649.7a3.6,3.6,0,0,0-3.6-3.6h-7.2" fill="none" stroke="#00baff" stroke-linecap="round" stroke-miterlimit="10" stroke-width="3"/><line y2="6.178" transform="translate(-1041.995 664.097)" fill="none" stroke="#00baff" stroke-linecap="round" stroke-miterlimit="10" stroke-width="3"/><line x1="7.984" y1="6.184" transform="translate(-1049.979 664.09)" fill="none" stroke="#00baff" stroke-linecap="round" stroke-miterlimit="10" stroke-width="3"/></g></svg>