<svg xmlns="http://www.w3.org/2000/svg" width="45.348" height="39.033" viewBox="0 0 45.348 39.033">
  <g id="paid_ads_icon" transform="translate(703.278 -390.483)">
    <path id="Path_2442" data-name="Path 2442" d="M-666.27,392.71v34.58a.709.709,0,0,1-1,.648l-23.681-10.5V402.552l23.682-10.49A.709.709,0,0,1-666.27,392.71Zm-31.632,9.841a3.928,3.928,0,0,0-3.876,3.983v6.922a3.941,3.941,0,0,0,3.876,4h6.955v-14.9Zm4.547,14.892h-4.652l3.528,10.4h4.651ZM-659.43,410a6.945,6.945,0,0,0-6.84-7.041v14.068A6.941,6.941,0,0,0-659.43,410Zm-13.381-4.963c-1.979-2.383-8.3-2.608-8.087,1.58.123,2.389,2.72,2.794,2.72,2.794,1.609.4,5.417.981,5.146,3.419-.443,3.99-6.1,3.671-8.381,1.617m4.485-13.638v2.537m0-2.537v2.537m0,12.581v2.536" fill="none" stroke="#00baff" stroke-linecap="round" stroke-miterlimit="10" stroke-width="3"/>
  </g>
</svg>
