<svg xmlns="http://www.w3.org/2000/svg" width="50.087" height="39" viewBox="0 0 50.087 39">
  <g id="transacional_emails_icon" transform="translate(504.894 -539.056)">
    <path id="Path_2440" data-name="Path 2440" d="M-492.959,565.339h-7.174a3.2,3.2,0,0,1-3.261-3.131V543.686a3.2,3.2,0,0,1,3.261-3.13H-470a3.2,3.2,0,0,1,3.261,3.13v7.957m-14.175-.663,12.48-9.12m-33.783,0,12.292,8.983" fill="none" stroke="#00baff" stroke-linecap="round" stroke-miterlimit="10" stroke-width="3"/>
    <g id="Group_647" data-name="Group 647">
      <path id="Path_2441" data-name="Path 2441" d="M-459.7,576.556h-30a3.2,3.2,0,0,1-3.261-3.13V554.773a3.2,3.2,0,0,1,3.261-3.13h30.13a3.2,3.2,0,0,1,3.261,3.13v18.522A3.522,3.522,0,0,1-459.7,576.556Z" fill="none" stroke="#00baff" stroke-linecap="round" stroke-miterlimit="10" stroke-width="3"/>
      <line id="Line_410" data-name="Line 410" x2="36.522" transform="translate(-492.959 558.817)" fill="none" stroke="#00baff" stroke-linecap="round" stroke-miterlimit="10" stroke-width="3"/>
      <line id="Line_411" data-name="Line 411" x2="11.739" transform="translate(-472.742 567.947)" fill="none" stroke="#00baff" stroke-linecap="round" stroke-miterlimit="10" stroke-width="3"/>
    </g>
  </g>
</svg>
