<svg id="web_push_icon" xmlns="http://www.w3.org/2000/svg" xmlns:xlink="http://www.w3.org/1999/xlink" width="48" height="39" viewBox="0 0 48 39">
  <defs>
    <clipPath id="clip-path">
      <rect id="Rectangle_327" data-name="Rectangle 327" width="48" height="39" fill="none"/>
    </clipPath>
  </defs>
  <g id="Group_534" data-name="Group 534" clip-path="url(#clip-path)">
    <path id="Path_2379" data-name="Path 2379" d="M43.323,37.5H4.677A3.011,3.011,0,0,1,1.5,34.558V4.442A3.011,3.011,0,0,1,4.677,1.5H43.323A3.012,3.012,0,0,1,46.5,4.442V34.558A3.012,3.012,0,0,1,43.323,37.5Z" fill="none" stroke="#00baff" stroke-miterlimit="10" stroke-width="3"/>
    <path id="Path_2380" data-name="Path 2380" d="M11.788,6a1.125,1.125,0,1,1-1.125-1.125A1.125,1.125,0,0,1,11.788,6" fill="#00baff"/>
    <path id="Path_2381" data-name="Path 2381" d="M16.288,6a1.125,1.125,0,1,1-1.125-1.125A1.125,1.125,0,0,1,16.288,6" fill="#00baff"/>
    <path id="Path_2382" data-name="Path 2382" d="M7.287,6A1.125,1.125,0,1,1,6.162,4.874,1.125,1.125,0,0,1,7.287,6" fill="#00baff"/>
    <path id="Path_2383" data-name="Path 2383" d="M26.006,29.061a1.892,1.892,0,0,1-3.784,0" fill="none" stroke="#00baff" stroke-miterlimit="10" stroke-width="3"/>
    <path id="Path_2384" data-name="Path 2384" d="M26.673,11.541a2.561,2.561,0,0,0-5.118,0" fill="none" stroke="#00baff" stroke-linecap="round" stroke-miterlimit="10" stroke-width="3"/>
    <path id="Path_2385" data-name="Path 2385" d="M21.555,11.542h-.012a9.362,9.362,0,0,0-3.574,2.7,7.983,7.983,0,0,0-1.217,4.415v5.256L15.13,25.593a1.331,1.331,0,0,0-.2,1.472,1.371,1.371,0,0,0,1.217.841H32.085a1.37,1.37,0,0,0,1.216-.841,1.333,1.333,0,0,0-.2-1.472l-1.623-1.681V18.656a7.982,7.982,0,0,0-1.216-4.415,9.372,9.372,0,0,0-3.577-2.7h-.01" fill="none" stroke="#00baff" stroke-linecap="round" stroke-miterlimit="10" stroke-width="3"/>
  </g>
</svg>
