<svg xmlns="http://www.w3.org/2000/svg" xmlns:xlink="http://www.w3.org/1999/xlink" width="44.364" height="43.5" viewBox="0 0 44.364 43.5"><defs><clipPath id="a"><rect width="44.364" height="43.5" fill="none"/></clipPath></defs><g clip-path="url(#a)"><path d="M35.769,37.5V42m-4.025,0h8.05M35.769,23.308A7.095,7.095,0,1,0,42.864,30.4,7.094,7.094,0,0,0,35.769,23.308Z" fill="none" stroke="#00baff" stroke-linecap="round" stroke-miterlimit="10" stroke-width="3"/><path d="M30.9,35.513a18.694,18.694,0,1,1,7.98-15.32,18.815,18.815,0,0,1-.346,3.6" fill="none" stroke="#00baff" stroke-linecap="round" stroke-miterlimit="10" stroke-width="3"/><path d="M16.12,24.691v-9a1.73,1.73,0,0,1,2.6-1.5l7.8,4.5a1.731,1.731,0,0,1,0,3l-7.8,4.5a1.731,1.731,0,0,1-2.6-1.5" fill="none" stroke="#00baff" stroke-linecap="round" stroke-miterlimit="10" stroke-width="3"/><path d="M35.769,28.064A2.337,2.337,0,1,0,38.106,30.4a2.337,2.337,0,0,0-2.337-2.337" fill="#00baff"/></g></svg>