<svg viewBox="0 0 20 18" xmlns="http://www.w3.org/2000/svg"><g fill="none" stroke="#00baff" stroke-miterlimit="10" stroke-width="1.1" transform="translate(-6 -7)"><g stroke-linecap="round"><path d="m18.5 14.5h4"/><path d="m18.5 17.5h4"/><path d="m18.5 20.5h3"/><path d="m9.6 18.6 1.9-2 1.4 1.8 1.1-1 1.5 1.6m-5.5-4.5a.47.47 0 0 0 -.5.5v5a.47.47 0 0 0 .5.5h5a.47.47 0 0 0 .5-.5v-5a.47.47 0 0 0 -.5-.5z"/><path d="m8.9 7.5h14.2a2.43 2.43 0 0 1 2.4 2.4v12.2a2.43 2.43 0 0 1 -2.4 2.4h-14.2a2.43 2.43 0 0 1 -2.4-2.4v-12.2a2.43 2.43 0 0 1 2.4-2.4z"/></g><path d="m6 10.5h19"/></g></svg>